<svg width="450" height="142" viewBox="0 0 450 142" fill="none" xmlns="http://www.w3.org/2000/svg">
<path fill-rule="evenodd" clip-rule="evenodd" d="M0 88.75L18.75 91.7083C37.5 94.6667 75 100.583 112.5 88.75C150 76.9167 187.5 47.3333 225 47.3333C262.5 47.3333 300 76.9167 337.5 73.9583C375 71 412.5 35.5 431.25 17.75L450 0V142H431.25C412.5 142 375 142 337.5 142C300 142 262.5 142 225 142C187.5 142 150 142 112.5 142C75 142 37.5 142 18.75 142H0V88.75Z" fill="#303030"/>
<path fill-rule="evenodd" clip-rule="evenodd" d="M0 113.875L18.75 115.438C37.5 117 75 120.125 112.5 113.875C150 107.625 187.5 92 225 92C262.5 92 300 107.625 337.5 106.062C375 104.5 412.5 85.75 431.25 76.375L450 67V142H431.25C412.5 142 375 142 337.5 142C300 142 262.5 142 225 142C187.5 142 150 142 112.5 142C75 142 37.5 142 18.75 142H0V113.875Z" fill="#202020"/>
</svg>
