<svg width="1282" height="834" viewBox="0 0 1282 834" fill="none" xmlns="http://www.w3.org/2000/svg">
<g opacity="0.5">
<path d="M1281 1H1V833H1281V1Z" stroke="black"/>
<path d="M1201.57 52.627H80.4277V781.372H1201.57V52.627Z" stroke="black"/>
<path d="M1129.05 99.7651H152.947V734.234H1129.05V99.7651Z" stroke="black"/>
<path d="M1063.44 142.414H218.561V691.585H1063.44V142.414Z" stroke="black"/>
<path d="M1004.73 180.573H277.268V653.426H1004.73V180.573Z" stroke="black"/>
<path d="M952.935 214.244H329.068V619.757H952.935V214.244Z" stroke="black"/>
<path d="M908.041 243.424H373.961V590.576H908.041V243.424Z" stroke="black"/>
<path d="M870.054 268.115H411.947V565.884H870.054V268.115Z" stroke="black"/>
<path d="M838.974 288.317H443.027V545.683H838.974V288.317Z" stroke="black"/>
<path d="M814.801 304.03H467.201V529.97H814.801V304.03Z" stroke="black"/>
<path d="M797.533 315.253H484.467V518.747H797.533V315.253Z" stroke="black"/>
<path d="M787.175 321.987H494.828V512.013H787.175V321.987Z" stroke="black"/>
<path d="M783.721 324.232H498.281V509.768H783.721V324.232Z" stroke="black"/>
<path d="M498.281 509.768L1.0012 832.999" stroke="black"/>
<path d="M522.066 509.768L140.49 832.999" stroke="black"/>
<path d="M545.855 509.768L258.751 832.999" stroke="black"/>
<path d="M569.641 509.768L363.66 832.999" stroke="black"/>
<path d="M593.426 509.768L460.18 832.999" stroke="black"/>
<path d="M617.215 509.768L551.747 832.999" stroke="black"/>
<path d="M641 509.768V832.999" stroke="black"/>
<path d="M664.787 509.768L730.255 832.999" stroke="black"/>
<path d="M688.574 509.768L821.82 832.999" stroke="black"/>
<path d="M712.361 509.768L918.342 832.999" stroke="black"/>
<path d="M736.146 509.768L1023.25 832.999" stroke="black"/>
<path d="M759.936 509.768L1141.51 832.999" stroke="black"/>
<path d="M783.721 509.768L1281 832.999" stroke="black"/>
<path d="M498.281 324.233L1.0012 1.00116" stroke="black"/>
<path d="M498.281 339.694L1.00131 91.6694" stroke="black"/>
<path d="M498.281 355.156L1.00132 168.538" stroke="black"/>
<path d="M498.281 370.617L1.00135 236.73" stroke="black"/>
<path d="M498.281 386.079L1.00131 299.469" stroke="black"/>
<path d="M498.281 401.54L1.00138 358.985" stroke="black"/>
<path d="M498.281 417H1.0014" stroke="black"/>
<path d="M498.281 432.461L1.00138 475.016" stroke="black"/>
<path d="M498.281 447.924L1.00131 534.534" stroke="black"/>
<path d="M498.281 463.385L1.00135 597.272" stroke="black"/>
<path d="M498.281 478.846L1.00132 665.464" stroke="black"/>
<path d="M498.281 494.307L1.00131 742.332" stroke="black"/>
<path d="M498.281 509.768L1.0012 833" stroke="black"/>
<path d="M783.723 324.232L1281 1.00067" stroke="black"/>
<path d="M759.936 324.232L1141.51 1.00062" stroke="black"/>
<path d="M736.148 324.232L1023.25 1.00063" stroke="black"/>
<path d="M712.361 324.232L918.342 1.00053" stroke="black"/>
<path d="M688.576 324.232L821.822 1.00053" stroke="black"/>
<path d="M664.789 324.232L730.257 1.00051" stroke="black"/>
<path d="M641.002 324.232L641.002 1.00051" stroke="black"/>
<path d="M617.215 324.232L551.747 1.00051" stroke="black"/>
<path d="M593.428 324.232L460.182 1.00053" stroke="black"/>
<path d="M569.643 324.232L363.662 1.00053" stroke="black"/>
<path d="M545.855 324.232L258.751 1.00063" stroke="black"/>
<path d="M522.068 324.232L140.492 1.00062" stroke="black"/>
<path d="M498.281 324.232L1.0012 1.00067" stroke="black"/>
<path d="M783.721 509.768L1281 833" stroke="black"/>
<path d="M783.721 494.307L1281 742.332" stroke="black"/>
<path d="M783.721 478.846L1281 665.464" stroke="black"/>
<path d="M783.721 463.385L1281 597.272" stroke="black"/>
<path d="M783.721 447.924L1281 534.534" stroke="black"/>
<path d="M783.721 432.461L1281 475.016" stroke="black"/>
<path d="M783.721 417L1281 417" stroke="black"/>
<path d="M783.721 401.54L1281 358.985" stroke="black"/>
<path d="M783.721 386.079L1281 299.469" stroke="black"/>
<path d="M783.721 370.617L1281 236.73" stroke="black"/>
<path d="M783.721 355.156L1281 168.538" stroke="black"/>
<path d="M783.721 339.694L1281 91.6694" stroke="black"/>
<path d="M783.721 324.233L1281 1.00116" stroke="black"/>
</g>
</svg>
