<svg width="803" height="803" viewBox="0 0 803 803" fill="none" xmlns="http://www.w3.org/2000/svg">
<g opacity="0.3">
<path d="M1.23633 0.749023V801.749" stroke="#B3B3B3" stroke-width="1.404"/>
<path d="M90.2363 0.749023V801.749" stroke="#B3B3B3" stroke-width="1.404"/>
<path d="M179.236 0.749023V801.749" stroke="#B3B3B3" stroke-width="1.404"/>
<path d="M268.236 0.749023V801.749" stroke="#B3B3B3" stroke-width="1.404"/>
<path d="M357.236 0.749023V801.749" stroke="#B3B3B3" stroke-width="1.404"/>
<path d="M446.236 0.749023V801.749" stroke="#B3B3B3" stroke-width="1.404"/>
<path d="M535.236 0.749023V801.749" stroke="#B3B3B3" stroke-width="1.404"/>
<path d="M624.236 0.749023V801.749" stroke="#B3B3B3" stroke-width="1.404"/>
<path d="M713.236 0.749023V801.749" stroke="#B3B3B3" stroke-width="1.404"/>
<path d="M802.236 0.749023V801.749" stroke="#B3B3B3" stroke-width="1.404"/>
<path d="M1.23633 801.749H802.236" stroke="#B3B3B3" stroke-width="1.404"/>
<path d="M1.23633 712.749H802.236" stroke="#B3B3B3" stroke-width="1.404"/>
<path d="M1.23633 623.749H802.236" stroke="#B3B3B3" stroke-width="1.404"/>
<path d="M1.23633 534.749H802.236" stroke="#B3B3B3" stroke-width="1.404"/>
<path d="M1.23633 445.749H802.236" stroke="#B3B3B3" stroke-width="1.404"/>
<path d="M1.23633 356.749H802.236" stroke="#B3B3B3" stroke-width="1.404"/>
<path d="M1.23633 267.749H802.236" stroke="#B3B3B3" stroke-width="1.404"/>
<path d="M1.23633 178.749H802.236" stroke="#B3B3B3" stroke-width="1.404"/>
<path d="M1.23633 89.749H802.236" stroke="#B3B3B3" stroke-width="1.404"/>
<path d="M1.23633 0.749023H802.236" stroke="#B3B3B3" stroke-width="1.404"/>
</g>
</svg>
